<svg width="500" height="500" viewBox="0 0 500 500" fill="none" xmlns="http://www.w3.org/2000/svg">
  <defs>
    <radialGradient id="glow" cx="50%" cy="32%" r="62%">
      <stop offset="0%" stop-color="#C41E3A" stop-opacity="0.38"/>
      <stop offset="55%" stop-color="#C41E3A" stop-opacity="0.06"/>
      <stop offset="100%" stop-color="#060008" stop-opacity="0"/>
    </radialGradient>
    <linearGradient id="ring" x1="0" y1="0" x2="1" y2="1">
      <stop offset="0%" stop-color="#C41E3A"/>
      <stop offset="100%" stop-color="#B91C3C"/>
    </linearGradient>
    <linearGradient id="mic" x1="0" y1="0" x2="0" y2="1">
      <stop offset="0%" stop-color="#F5F0F1"/>
      <stop offset="100%" stop-color="#C41E3A"/>
    </linearGradient>
  </defs>

  <!-- Background -->
  <rect width="500" height="500" rx="36" fill="#060008"/>
  <rect width="500" height="500" rx="36" fill="url(#glow)"/>
  <rect x="14" y="14" width="472" height="472" rx="28" fill="none" stroke="#C41E3A" stroke-opacity="0.22" stroke-width="1.5"/>

  <!-- Mic emblem -->
  <circle cx="250" cy="180" r="78" fill="#C41E3A" fill-opacity="0.10" stroke="url(#ring)" stroke-opacity="0.5" stroke-width="1.5"/>
  <g transform="translate(250 180)">
    <rect x="-19" y="-46" width="38" height="64" rx="19" fill="url(#mic)"/>
    <path d="M -34 -4 A 34 34 0 0 0 34 -4" fill="none" stroke="#F5F0F1" stroke-width="5" stroke-linecap="round"/>
    <line x1="0" y1="30" x2="0" y2="46" stroke="#F5F0F1" stroke-width="5" stroke-linecap="round"/>
    <line x1="-16" y1="46" x2="16" y2="46" stroke="#F5F0F1" stroke-width="5" stroke-linecap="round"/>
  </g>

  <!-- Waveform accent -->
  <g stroke="#C41E3A" stroke-width="4" stroke-linecap="round" opacity="0.65">
    <line x1="150" y1="292" x2="150" y2="308"/>
    <line x1="170" y1="284" x2="170" y2="316"/>
    <line x1="190" y1="276" x2="190" y2="324"/>
    <line x1="210" y1="288" x2="210" y2="312"/>
    <line x1="230" y1="270" x2="230" y2="330"/>
    <line x1="250" y1="282" x2="250" y2="318"/>
    <line x1="270" y1="270" x2="270" y2="330"/>
    <line x1="290" y1="288" x2="290" y2="312"/>
    <line x1="310" y1="276" x2="310" y2="324"/>
    <line x1="330" y1="284" x2="330" y2="316"/>
    <line x1="350" y1="292" x2="350" y2="308"/>
  </g>

  <!-- Title -->
  <text x="250" y="378" text-anchor="middle" font-family="Helvetica, Arial, sans-serif" font-size="34" font-weight="700" letter-spacing="6" fill="#F5F0F1">VOICE LICENSE</text>
  <text x="250" y="406" text-anchor="middle" font-family="Helvetica, Arial, sans-serif" font-size="16" font-weight="600" letter-spacing="3" fill="#C41E3A">AURACAST</text>

  <!-- Footer badge -->
  <circle cx="206" cy="442" r="4" fill="#22C55E"/>
  <text x="220" y="447" text-anchor="start" font-family="Helvetica, Arial, sans-serif" font-size="14" font-weight="500" letter-spacing="1" fill="#F5F0F1" fill-opacity="0.7">Verified on Solana</text>
</svg>
